<?xml version="1.0" encoding="UTF-8" standalone="no"?>
<!-- Created with Inkscape (http://www.inkscape.org/) -->

<svg
   xmlns:dc="http://purl.org/dc/elements/1.1/"
   xmlns:cc="http://creativecommons.org/ns#"
   xmlns:rdf="http://www.w3.org/1999/02/22-rdf-syntax-ns#"
   xmlns:svg="http://www.w3.org/2000/svg"
   xmlns="http://www.w3.org/2000/svg"
   xmlns:sodipodi="http://sodipodi.sourceforge.net/DTD/sodipodi-0.dtd"
   xmlns:inkscape="http://www.inkscape.org/namespaces/inkscape"
   width="100"
   height="100"
   viewBox="0 0 26.458333 26.458334"
   version="1.1"
   id="svg8"
   inkscape:version="0.92.1 r15371"
   sodipodi:docname="reload.svg">
  <defs
     id="defs2" />
  <sodipodi:namedview
     id="base"
     pagecolor="#ffffff"
     bordercolor="#666666"
     borderopacity="1.0"
     inkscape:pageopacity="0.0"
     inkscape:pageshadow="2"
     inkscape:zoom="5.6"
     inkscape:cx="36.873507"
     inkscape:cy="36.853588"
     inkscape:document-units="mm"
     inkscape:current-layer="layer1"
     showgrid="true"
     units="px"
     inkscape:window-width="2560"
     inkscape:window-height="1315"
     inkscape:window-x="-13"
     inkscape:window-y="-13"
     inkscape:window-maximized="1">
    <inkscape:grid
       type="xygrid"
       id="grid4485" />
  </sodipodi:namedview>
  <metadata
     id="metadata5">
    <rdf:RDF>
      <cc:Work
         rdf:about="">
        <dc:format>image/svg+xml</dc:format>
        <dc:type
           rdf:resource="http://purl.org/dc/dcmitype/StillImage" />
        <dc:title />
      </cc:Work>
    </rdf:RDF>
  </metadata>
  <g
     inkscape:label="Layer 1"
     inkscape:groupmode="layer"
     id="layer1"
     transform="translate(0,-270.54165)">
    <g
       aria-label="R"
       style="font-style:normal;font-weight:normal;font-size:10.58333302px;line-height:1.25;font-family:sans-serif;letter-spacing:0px;word-spacing:0px;fill:#000000;fill-opacity:1;stroke:none;stroke-width:0.26458332"
       id="text5126">
      <path
         d="m 19.10022,289.62808 h -1.938899 l -1.881022,-4.03214 q -0.212218,-0.46302 -0.434083,-0.76205 -0.221864,-0.30868 -0.482313,-0.48232 -0.250803,-0.18328 -0.559483,-0.26045 -0.299035,-0.0772 -0.675239,-0.0772 h -0.810287 v 5.61413 h -1.717035 v -12.60767 h 3.376193 q 1.099675,0 1.890669,0.24116 0.790994,0.24115 1.2926,0.67524 0.511252,0.43408 0.742762,1.05144 0.241157,0.60771 0.241157,1.35048 0,0.58842 -0.173633,1.11896 -0.173633,0.5209 -0.520898,0.95498 -0.33762,0.42444 -0.848872,0.74277 -0.501606,0.30868 -1.157552,0.46302 0.530545,0.18328 0.897103,0.6463 0.376204,0.45337 0.762055,1.21543 z m -2.749186,-9.14466 q 0,-1.01286 -0.636653,-1.51446 -0.627008,-0.50161 -1.774914,-0.50161 h -1.620573 v 4.16719 h 1.389063 q 0.607715,0 1.090028,-0.13505 0.49196,-0.14469 0.829579,-0.41479 0.347266,-0.27974 0.530545,-0.67524 0.192925,-0.40514 0.192925,-0.92604 z"
         style="font-style:normal;font-variant:normal;font-weight:normal;font-stretch:normal;font-size:19.75555611px;font-family:Consolas;-inkscape-font-specification:'Consolas, Normal';font-variant-ligatures:normal;font-variant-caps:normal;font-variant-numeric:normal;font-feature-settings:normal;text-align:start;writing-mode:lr-tb;text-anchor:start;stroke-width:0.26458332"
         id="path10197" />
    </g>
    <path
       style="opacity:1;fill:#000000;fill-opacity:1;stroke:none;stroke-width:1.00157475;stroke-linecap:butt;stroke-linejoin:round;stroke-miterlimit:4;stroke-dasharray:none;stroke-dashoffset:0;stroke-opacity:1;paint-order:normal"
       d="M 50 10 A 39.999998 39.999998 0 0 0 10 50 A 39.999998 39.999998 0 0 0 21.732422 78.267578 L 25.267578 74.732422 A 35.000001 35.000001 0 0 1 15 50 A 35.000001 35.000001 0 0 1 50 15 A 35.000001 35.000001 0 0 1 85 50 A 35.000001 35.000001 0 0 1 50 85 L 50 90 A 39.999998 39.999998 0 0 0 90 50 A 39.999998 39.999998 0 0 0 50 10 z "
       transform="matrix(0.26458333,0,0,0.26458333,0,270.54165)"
       id="path5130" />
    <path
       style="fill:#000000;stroke:none;stroke-width:0.26458332px;stroke-linecap:butt;stroke-linejoin:miter;stroke-opacity:1"
       d="m 2.6458337,293.03123 6.614583,-6.61458 v 6.61458 z"
       id="path5139"
       inkscape:connector-curvature="0" />
  </g>
</svg>
