<?xml version="1.0" encoding="UTF-8" standalone="no"?>
<!-- Created with Inkscape (http://www.inkscape.org/) -->

<svg
   xmlns:dc="http://purl.org/dc/elements/1.1/"
   xmlns:cc="http://creativecommons.org/ns#"
   xmlns:rdf="http://www.w3.org/1999/02/22-rdf-syntax-ns#"
   xmlns:svg="http://www.w3.org/2000/svg"
   xmlns="http://www.w3.org/2000/svg"
   xmlns:sodipodi="http://sodipodi.sourceforge.net/DTD/sodipodi-0.dtd"
   xmlns:inkscape="http://www.inkscape.org/namespaces/inkscape"
   width="100"
   height="100"
   viewBox="0 0 26.458333 26.458334"
   version="1.1"
   id="svg8"
   inkscape:version="0.92.1 r15371"
   sodipodi:docname="empty.svg">
  <defs
     id="defs2" />
  <sodipodi:namedview
     id="base"
     pagecolor="#ffffff"
     bordercolor="#666666"
     borderopacity="1.0"
     inkscape:pageopacity="0.0"
     inkscape:pageshadow="2"
     inkscape:zoom="7.9195959"
     inkscape:cx="25.245886"
     inkscape:cy="55.545186"
     inkscape:document-units="mm"
     inkscape:current-layer="layer1"
     showgrid="true"
     units="px"
     inkscape:window-width="2560"
     inkscape:window-height="1315"
     inkscape:window-x="-13"
     inkscape:window-y="-13"
     inkscape:window-maximized="1">
    <inkscape:grid
       type="xygrid"
       id="grid4485" />
  </sodipodi:namedview>
  <metadata
     id="metadata5">
    <rdf:RDF>
      <cc:Work
         rdf:about="">
        <dc:format>image/svg+xml</dc:format>
        <dc:type
           rdf:resource="http://purl.org/dc/dcmitype/StillImage" />
        <dc:title></dc:title>
      </cc:Work>
    </rdf:RDF>
  </metadata>
  <g
     inkscape:label="Layer 1"
     inkscape:groupmode="layer"
     id="layer1"
     transform="translate(0,-270.54165)">
    <path
       style="opacity:1;fill:#000000;fill-opacity:1;stroke:none;stroke-width:0.26499999;stroke-linecap:butt;stroke-linejoin:round;stroke-miterlimit:4;stroke-dasharray:none;stroke-dashoffset:0;stroke-opacity:1;paint-order:normal"
       d="m 15.875,273.18748 v 1.32292 a 1.3229165,1.3229165 0 0 1 1.322916,1.32292 1.3229166,1.3229166 0 0 1 -1.322916,1.32291 1.3229165,1.3229165 0 0 1 -1.322917,-1.32291 h -1.322917 a 2.6458332,2.6458332 0 0 0 2.645834,2.64583 2.6458332,2.6458332 0 0 0 1.086755,-0.23616 l 1.795756,1.79575 a 2.6458332,2.6458332 0 0 0 -0.236678,1.08624 2.6458332,2.6458332 0 0 0 2.645833,2.64584 v -1.32292 a 1.3229165,1.3229165 0 0 1 -1.322917,-1.32292 1.3229165,1.3229165 0 0 1 1.322917,-1.32291 1.3229165,1.3229165 0 0 1 1.322917,1.32291 h 1.322916 a 2.6458332,2.6458332 0 0 0 -2.645833,-2.64583 2.6458332,2.6458332 0 0 0 -1.086755,0.23616 l -1.795756,-1.79575 a 2.6458332,2.6458332 0 0 0 0.236678,-1.08624 2.6458332,2.6458332 0 0 0 -2.645833,-2.64584 z"
       id="path4500"
       inkscape:connector-curvature="0" />
    <path
       style="fill:#000000;stroke:none;stroke-width:0.99999994px;stroke-linecap:butt;stroke-linejoin:miter;stroke-opacity:1"
       d="M 30 40 L 10 60 L 10 90 L 50 90 L 50 60 L 30 40 z M 30 47.072266 L 45 62.064453 L 45 85 L 15 85 L 15 62.064453 L 30 47.072266 z "
       transform="matrix(0.26458333,0,0,0.26458333,0,270.54165)"
       id="path4485" />
  </g>
</svg>
