<?xml version="1.0" encoding="UTF-8" standalone="no"?>
<!-- Created with Inkscape (http://www.inkscape.org/) -->

<svg
   xmlns:dc="http://purl.org/dc/elements/1.1/"
   xmlns:cc="http://creativecommons.org/ns#"
   xmlns:rdf="http://www.w3.org/1999/02/22-rdf-syntax-ns#"
   xmlns:svg="http://www.w3.org/2000/svg"
   xmlns="http://www.w3.org/2000/svg"
   xmlns:sodipodi="http://sodipodi.sourceforge.net/DTD/sodipodi-0.dtd"
   xmlns:inkscape="http://www.inkscape.org/namespaces/inkscape"
   width="100"
   height="100"
   viewBox="0 0 26.458333 26.458334"
   version="1.1"
   id="svg8"
   inkscape:version="0.92.1 r15371"
   sodipodi:docname="empty.svg">
  <defs
     id="defs2" />
  <sodipodi:namedview
     id="base"
     pagecolor="#ffffff"
     bordercolor="#666666"
     borderopacity="1.0"
     inkscape:pageopacity="0.0"
     inkscape:pageshadow="2"
     inkscape:zoom="5.6"
     inkscape:cx="86.483757"
     inkscape:cy="54.533081"
     inkscape:document-units="mm"
     inkscape:current-layer="layer1"
     showgrid="true"
     units="px"
     inkscape:window-width="2560"
     inkscape:window-height="1315"
     inkscape:window-x="-13"
     inkscape:window-y="-13"
     inkscape:window-maximized="1">
    <inkscape:grid
       type="xygrid"
       id="grid4485" />
  </sodipodi:namedview>
  <metadata
     id="metadata5">
    <rdf:RDF>
      <cc:Work
         rdf:about="">
        <dc:format>image/svg+xml</dc:format>
        <dc:type
           rdf:resource="http://purl.org/dc/dcmitype/StillImage" />
        <dc:title></dc:title>
      </cc:Work>
    </rdf:RDF>
  </metadata>
  <g
     inkscape:label="Layer 1"
     inkscape:groupmode="layer"
     id="layer1"
     transform="translate(0,-270.54165)">
    <path
       style="fill:#000000;stroke:none;stroke-width:0.26458332px;stroke-linecap:butt;stroke-linejoin:miter;stroke-opacity:1"
       d="M 2.6458333,294.35415 H 18.520833 v -2.64583 l -7.9375,-15.875 -7.9374997,15.875 v 2.64583"
       id="path4483"
       inkscape:connector-curvature="0" />
    <path
       sodipodi:type="star"
       style="opacity:1;fill:#ff0000;fill-opacity:1;stroke:none;stroke-width:0.26499999;stroke-linecap:butt;stroke-linejoin:round;stroke-miterlimit:4;stroke-dasharray:none;stroke-dashoffset:0;stroke-opacity:1;paint-order:normal"
       id="path4493"
       sodipodi:sides="5"
       sodipodi:cx="10.583333"
       sodipodi:cy="282.4479"
       sodipodi:r1="1.8708867"
       sodipodi:r2="0.88194722"
       sodipodi:arg1="0.78539816"
       sodipodi:arg2="1.4137167"
       inkscape:flatsided="false"
       inkscape:rounded="0.05"
       inkscape:randomized="0"
       d="m 11.90625,283.77082 c -0.04484,0.0448 -1.122322,-0.46175 -1.18495,-0.45183 -0.06263,0.01 -0.9308344,0.82467 -0.9873318,0.79588 -0.056497,-0.0288 0.092331,-1.21008 0.063544,-1.26657 -0.028787,-0.0565 -1.0719515,-0.63044 -1.0620322,-0.69307 0.00992,-0.0626 1.1793855,-0.28612 1.2242221,-0.33096 0.044837,-0.0448 0.2683318,-1.2143 0.3309598,-1.22422 0.06263,-0.01 0.636569,1.03324 0.693067,1.06203 0.0565,0.0288 1.237789,-0.12004 1.266576,-0.0635 0.02879,0.0565 -0.785964,0.9247 -0.795883,0.98733 -0.0099,0.0626 0.496664,1.14011 0.451828,1.18495 z"
       inkscape:transform-center-x="0.090103162"
       inkscape:transform-center-y="-0.090103062" />
    <path
       inkscape:transform-center-y="-0.090103062"
       inkscape:transform-center-x="0.090103162"
       d="m 9.2604167,290.38539 c -0.044837,0.0448 -1.1223219,-0.46175 -1.1849498,-0.45183 -0.062628,0.01 -0.9308343,0.82467 -0.9873317,0.79588 -0.056497,-0.0288 0.092331,-1.21008 0.063544,-1.26657 -0.028787,-0.0565 -1.0719515,-0.63044 -1.0620323,-0.69307 0.00992,-0.0626 1.1793856,-0.28612 1.2242221,-0.33096 0.044837,-0.0448 0.2683319,-1.2143 0.3309597,-1.22422 0.062628,-0.01 0.6365695,1.03324 0.6930669,1.06203 0.056497,0.0288 1.2377897,-0.12004 1.2665765,-0.0636 0.028787,0.0565 -0.7859639,0.92471 -0.7958832,0.98734 -0.00992,0.0626 0.4966642,1.14011 0.4518277,1.18495 z"
       inkscape:randomized="0"
       inkscape:rounded="0.05"
       inkscape:flatsided="false"
       sodipodi:arg2="1.4137167"
       sodipodi:arg1="0.78539816"
       sodipodi:r2="0.88194722"
       sodipodi:r1="1.8708867"
       sodipodi:cy="289.06248"
       sodipodi:cx="7.9375"
       sodipodi:sides="5"
       id="path4495"
       style="opacity:1;fill:#ff0000;fill-opacity:1;stroke:none;stroke-width:0.26499999;stroke-linecap:butt;stroke-linejoin:round;stroke-miterlimit:4;stroke-dasharray:none;stroke-dashoffset:0;stroke-opacity:1;paint-order:normal"
       sodipodi:type="star" />
    <path
       sodipodi:type="star"
       style="opacity:1;fill:#ff0000;fill-opacity:1;stroke:none;stroke-width:0.26499999;stroke-linecap:butt;stroke-linejoin:round;stroke-miterlimit:4;stroke-dasharray:none;stroke-dashoffset:0;stroke-opacity:1;paint-order:normal"
       id="path4497"
       sodipodi:sides="5"
       sodipodi:cx="13.229167"
       sodipodi:cy="287.73957"
       sodipodi:r1="1.8708867"
       sodipodi:r2="0.88194722"
       sodipodi:arg1="0.78539816"
       sodipodi:arg2="1.4137167"
       inkscape:flatsided="false"
       inkscape:rounded="0.05"
       inkscape:randomized="0"
       d="m 14.552084,289.06248 c -0.04484,0.0448 -1.122322,-0.46174 -1.18495,-0.45182 -0.06263,0.01 -0.930834,0.82467 -0.987332,0.79588 -0.0565,-0.0288 0.09233,-1.21008 0.06354,-1.26658 -0.02879,-0.0565 -1.071951,-0.63044 -1.062032,-0.69306 0.0099,-0.0626 1.179386,-0.28613 1.224222,-0.33096 0.04484,-0.0448 0.268332,-1.21431 0.33096,-1.22423 0.06263,-0.01 0.636569,1.03325 0.693067,1.06204 0.0565,0.0288 1.237789,-0.12005 1.266576,-0.0636 0.02879,0.0565 -0.785964,0.92471 -0.795883,0.98733 -0.0099,0.0626 0.496664,1.14012 0.451828,1.18495 z"
       inkscape:transform-center-x="0.090103162"
       inkscape:transform-center-y="-0.090103062" />
    <path
       style="fill:#000000;stroke:none;stroke-width:0.26458332px;stroke-linecap:butt;stroke-linejoin:miter;stroke-opacity:1"
       d="m 22.489583,282.44789 1.322917,-1.32291 -5.291667,-5.29166 h -1.322916 l 0,1.32291 z"
       id="path4499"
       inkscape:connector-curvature="0"
       sodipodi:nodetypes="cccccc" />
    <path
       inkscape:transform-center-y="-0.090103062"
       inkscape:transform-center-x="0.090103162"
       d="m 18.520835,277.15623 c -0.04484,0.0448 -1.122322,-0.46175 -1.18495,-0.45183 -0.06263,0.01 -0.930834,0.82467 -0.987332,0.79589 -0.0565,-0.0288 0.09233,-1.21008 0.06354,-1.26658 -0.02879,-0.0565 -1.071951,-0.63044 -1.062032,-0.69307 0.0099,-0.0626 1.179386,-0.28612 1.224222,-0.33096 0.04484,-0.0448 0.268332,-1.2143 0.33096,-1.22422 0.06263,-0.01 0.636569,1.03325 0.693067,1.06203 0.0565,0.0288 1.237789,-0.12004 1.266576,-0.0635 0.02879,0.0565 -0.785964,0.9247 -0.795883,0.98733 -0.0099,0.0626 0.496664,1.14011 0.451828,1.18495 z"
       inkscape:randomized="0"
       inkscape:rounded="0.05"
       inkscape:flatsided="false"
       sodipodi:arg2="1.4137167"
       sodipodi:arg1="0.78539816"
       sodipodi:r2="0.88194722"
       sodipodi:r1="1.8708867"
       sodipodi:cy="275.83332"
       sodipodi:cx="17.197917"
       sodipodi:sides="5"
       id="path4501"
       style="opacity:1;fill:#ff0000;fill-opacity:1;stroke:none;stroke-width:0.26499999;stroke-linecap:butt;stroke-linejoin:round;stroke-miterlimit:4;stroke-dasharray:none;stroke-dashoffset:0;stroke-opacity:1;paint-order:normal"
       sodipodi:type="star" />
  </g>
</svg>
